<?xml version="1.0" encoding="UTF-8" standalone="no"?>
<!DOCTYPE svg PUBLIC "-//W3C//DTD SVG 1.1//EN"
 "http://www.w3.org/Graphics/SVG/1.1/DTD/svg11.dtd">
<!-- Generated by graphviz version 2.43.0 (0)
 -->
<!-- Title: g Pages: 1 -->
<svg width="867pt" height="251pt"
 viewBox="0.00 0.00 867.10 250.60" xmlns="http://www.w3.org/2000/svg" xmlns:xlink="http://www.w3.org/1999/xlink">
<g id="graph0" class="graph" transform="scale(1 1) rotate(0) translate(28.8 221.8)">
<title>g</title>
<polygon fill="#0d1117" stroke="transparent" points="-28.8,28.8 -28.8,-221.8 838.3,-221.8 838.3,28.8 -28.8,28.8"/>
<text text-anchor="middle" x="404.75" y="-173" font-family="Helvetica,sans-Serif" font-size="20.00" fill="#e6edf3">Search backends available in plugins/web/ (illustrative cost view)</text>
<!-- h -->
<g id="node1" class="node">
<title>h</title>
<path fill="#13294d" stroke="#58a6ff" stroke-width="2" d="M438.5,-163C438.5,-163 281.5,-163 281.5,-163 275.5,-163 269.5,-157 269.5,-151 269.5,-151 269.5,-134 269.5,-134 269.5,-128 275.5,-122 281.5,-122 281.5,-122 438.5,-122 438.5,-122 444.5,-122 450.5,-128 450.5,-134 450.5,-134 450.5,-151 450.5,-151 450.5,-157 444.5,-163 438.5,-163"/>
<text text-anchor="middle" x="360" y="-138.8" font-family="Helvetica,sans-Serif" font-size="14.00" fill="#e6edf3">web.search_backend</text>
</g>
<!-- dd -->
<g id="node2" class="node">
<title>dd</title>
<path fill="#1f2937" stroke="#3fb950" stroke-width="2" d="M106,-71C106,-71 12,-71 12,-71 6,-71 0,-65 0,-59 0,-59 0,-12 0,-12 0,-6 6,0 12,0 12,0 106,0 106,0 112,0 118,-6 118,-12 118,-12 118,-59 118,-59 118,-65 112,-71 106,-71"/>
<text text-anchor="middle" x="59" y="-46.8" font-family="Helvetica,sans-Serif" font-size="14.00" fill="#e6edf3">ddgs</text>
<text text-anchor="middle" x="59" y="-31.8" font-family="Helvetica,sans-Serif" font-size="14.00" fill="#e6edf3">no key, free</text>
<text text-anchor="middle" x="59" y="-16.8" font-family="Helvetica,sans-Serif" font-size="14.00" fill="#e6edf3">search only</text>
</g>
<!-- h&#45;&gt;dd -->
<g id="edge1" class="edge">
<title>h&#45;&gt;dd</title>
<path fill="none" stroke="#3fb950" stroke-width="3" d="M283.29,-121.95C237.28,-109.32 177.99,-91.46 127,-71 126.82,-70.93 126.63,-70.85 126.45,-70.78"/>
<polygon fill="#3fb950" stroke="#3fb950" stroke-width="3" points="127.57,-67.83 118.05,-67.23 125.12,-73.64 127.57,-67.83"/>
<text text-anchor="middle" x="252.5" y="-92.8" font-family="Helvetica,sans-Serif" font-size="14.00" fill="#adbac7">CHOSEN</text>
</g>
<!-- br -->
<g id="node3" class="node">
<title>br</title>
<path fill="#1f2937" stroke="#d29922" stroke-width="2" d="M360,-71C360,-71 148,-71 148,-71 142,-71 136,-65 136,-59 136,-59 136,-12 136,-12 136,-6 142,0 148,0 148,0 360,0 360,0 366,0 372,-6 372,-12 372,-12 372,-59 372,-59 372,-65 366,-71 360,-71"/>
<text text-anchor="middle" x="254" y="-46.8" font-family="Helvetica,sans-Serif" font-size="14.00" fill="#e6edf3">brave&#45;free</text>
<text text-anchor="middle" x="254" y="-31.8" font-family="Helvetica,sans-Serif" font-size="14.00" fill="#e6edf3">BRAVE_SEARCH_API_KEY</text>
<text text-anchor="middle" x="254" y="-16.8" font-family="Helvetica,sans-Serif" font-size="14.00" fill="#e6edf3">free signup, ~2k queries/mo</text>
</g>
<!-- h&#45;&gt;br -->
<g id="edge2" class="edge">
<title>h&#45;&gt;br</title>
<path fill="none" stroke="#8b949e" stroke-width="1.6" d="M340.06,-121.75C327.47,-109.28 310.73,-92.69 295.36,-77.47"/>
<polygon fill="#8b949e" stroke="#8b949e" stroke-width="1.6" points="297.48,-75.14 288.87,-71.04 293.05,-79.62 297.48,-75.14"/>
</g>
<!-- sx -->
<g id="node4" class="node">
<title>sx</title>
<path fill="#0d2e2e" stroke="#39c5cf" stroke-width="2" d="M532,-63.5C532,-63.5 402,-63.5 402,-63.5 396,-63.5 390,-57.5 390,-51.5 390,-51.5 390,-19.5 390,-19.5 390,-13.5 396,-7.5 402,-7.5 402,-7.5 532,-7.5 532,-7.5 538,-7.5 544,-13.5 544,-19.5 544,-19.5 544,-51.5 544,-51.5 544,-57.5 538,-63.5 532,-63.5"/>
<text text-anchor="middle" x="467" y="-39.3" font-family="Helvetica,sans-Serif" font-size="14.00" fill="#e6edf3">searxng</text>
<text text-anchor="middle" x="467" y="-24.3" font-family="Helvetica,sans-Serif" font-size="14.00" fill="#e6edf3">self&#45;hosted, local</text>
</g>
<!-- h&#45;&gt;sx -->
<g id="edge3" class="edge">
<title>h&#45;&gt;sx</title>
<path fill="none" stroke="#8b949e" stroke-width="1.6" d="M379.88,-122C394.6,-107.55 415.04,-87.49 432.42,-70.43"/>
<polygon fill="#8b949e" stroke="#8b949e" stroke-width="1.6" points="434.95,-72.37 439.16,-63.82 430.53,-67.87 434.95,-72.37"/>
</g>
<!-- pd -->
<g id="node5" class="node">
<title>pd</title>
<path fill="#161b22" stroke="#f0883e" stroke-width="2" d="M797.5,-63.5C797.5,-63.5 574.5,-63.5 574.5,-63.5 568.5,-63.5 562.5,-57.5 562.5,-51.5 562.5,-51.5 562.5,-19.5 562.5,-19.5 562.5,-13.5 568.5,-7.5 574.5,-7.5 574.5,-7.5 797.5,-7.5 797.5,-7.5 803.5,-7.5 809.5,-13.5 809.5,-19.5 809.5,-19.5 809.5,-51.5 809.5,-51.5 809.5,-57.5 803.5,-63.5 797.5,-63.5"/>
<text text-anchor="middle" x="686" y="-39.3" font-family="Helvetica,sans-Serif" font-size="14.00" fill="#e6edf3">exa / parallel / firecrawl</text>
<text text-anchor="middle" x="686" y="-24.3" font-family="Helvetica,sans-Serif" font-size="14.00" fill="#e6edf3">API key, template lines in .env</text>
</g>
<!-- h&#45;&gt;pd -->
<g id="edge4" class="edge">
<title>h&#45;&gt;pd</title>
<path fill="none" stroke="#8b949e" stroke-width="1.6" d="M420.55,-122C469.06,-106.37 537.91,-84.2 593.34,-66.34"/>
<polygon fill="#8b949e" stroke="#8b949e" stroke-width="1.6" points="594.51,-69.28 602.11,-63.52 592.58,-63.28 594.51,-69.28"/>
</g>
</g>
</svg>
