<?xml version="1.0" encoding="UTF-8" standalone="no"?>
<!DOCTYPE svg PUBLIC "-//W3C//DTD SVG 1.1//EN"
 "http://www.w3.org/Graphics/SVG/1.1/DTD/svg11.dtd">
<!-- Generated by graphviz version 2.43.0 (0)
 -->
<!-- Title: g Pages: 1 -->
<svg width="945pt" height="491pt"
 viewBox="0.00 0.00 944.60 491.10" xmlns="http://www.w3.org/2000/svg" xmlns:xlink="http://www.w3.org/1999/xlink">
<g id="graph0" class="graph" transform="scale(1 1) rotate(0) translate(28.8 462.3)">
<title>g</title>
<polygon fill="#0d1117" stroke="transparent" points="-28.8,28.8 -28.8,-462.3 915.8,-462.3 915.8,28.8 -28.8,28.8"/>
<text text-anchor="middle" x="443.5" y="-413.5" font-family="Helvetica,sans-Serif" font-size="20.00" fill="#e6edf3">Whole system: what runs on the host vs in Docker</text>
<g id="clust1" class="cluster">
<title>cluster_h</title>
<path fill="#0d1117" stroke="#58a6ff" d="M104.5,-118C104.5,-118 753,-118 753,-118 759,-118 765,-124 765,-130 765,-130 765,-342 765,-342 765,-348 759,-354 753,-354 753,-354 104.5,-354 104.5,-354 98.5,-354 92.5,-348 92.5,-342 92.5,-342 92.5,-130 92.5,-130 92.5,-124 98.5,-118 104.5,-118"/>
<text text-anchor="middle" x="428.75" y="-334" font-family="Helvetica,sans-Serif" font-size="20.00" fill="#58a6ff">Host (calisota)</text>
</g>
<g id="clust2" class="cluster">
<title>cluster_d</title>
<path fill="#0d1117" stroke="#bc8cff" stroke-dasharray="5,2" d="M462.5,-8C462.5,-8 756.5,-8 756.5,-8 762.5,-8 768.5,-14 768.5,-20 768.5,-20 768.5,-98 768.5,-98 768.5,-104 762.5,-110 756.5,-110 756.5,-110 462.5,-110 462.5,-110 456.5,-110 450.5,-104 450.5,-98 450.5,-98 450.5,-20 450.5,-20 450.5,-14 456.5,-8 462.5,-8"/>
<text text-anchor="middle" x="609.5" y="-90" font-family="Helvetica,sans-Serif" font-size="20.00" fill="#bc8cff">Docker: hermes&#45;sandbox:tools</text>
</g>
<!-- ag -->
<g id="node1" class="node">
<title>ag</title>
<path fill="#13294d" stroke="#58a6ff" stroke-width="2" d="M302.5,-207.5C302.5,-207.5 112.5,-207.5 112.5,-207.5 106.5,-207.5 100.5,-201.5 100.5,-195.5 100.5,-195.5 100.5,-178.5 100.5,-178.5 100.5,-172.5 106.5,-166.5 112.5,-166.5 112.5,-166.5 302.5,-166.5 302.5,-166.5 308.5,-166.5 314.5,-172.5 314.5,-178.5 314.5,-178.5 314.5,-195.5 314.5,-195.5 314.5,-201.5 308.5,-207.5 302.5,-207.5"/>
<text text-anchor="middle" x="207.5" y="-183.3" font-family="Helvetica,sans-Serif" font-size="14.00" fill="#e6edf3">Hermes agent + gateway</text>
</g>
<!-- ws -->
<g id="node2" class="node">
<title>ws</title>
<path fill="#1f2937" stroke="#3fb950" stroke-width="2" d="M690.5,-182C690.5,-182 527.5,-182 527.5,-182 521.5,-182 515.5,-176 515.5,-170 515.5,-170 515.5,-138 515.5,-138 515.5,-132 521.5,-126 527.5,-126 527.5,-126 690.5,-126 690.5,-126 696.5,-126 702.5,-132 702.5,-138 702.5,-138 702.5,-170 702.5,-170 702.5,-176 696.5,-182 690.5,-182"/>
<text text-anchor="middle" x="609" y="-157.8" font-family="Helvetica,sans-Serif" font-size="14.00" fill="#e6edf3">web_search</text>
<text text-anchor="middle" x="609" y="-142.8" font-family="Helvetica,sans-Serif" font-size="14.00" fill="#e6edf3">ddgs &#45;&gt; DuckDuckGo</text>
</g>
<!-- ag&#45;&gt;ws -->
<g id="edge2" class="edge">
<title>ag&#45;&gt;ws</title>
<path fill="none" stroke="#8b949e" stroke-width="1.6" d="M314.51,-178.24C373.86,-173.34 447.5,-167.26 506.16,-162.41"/>
<polygon fill="#8b949e" stroke="#8b949e" stroke-width="1.6" points="506.73,-165.53 515.44,-161.65 506.21,-159.25 506.73,-165.53"/>
</g>
<!-- br -->
<g id="node3" class="node">
<title>br</title>
<path fill="#1f2937" stroke="#3fb950" stroke-width="2" d="M745,-316C745,-316 473,-316 473,-316 467,-316 461,-310 461,-304 461,-304 461,-272 461,-272 461,-266 467,-260 473,-260 473,-260 745,-260 745,-260 751,-260 757,-266 757,-272 757,-272 757,-304 757,-304 757,-310 751,-316 745,-316"/>
<text text-anchor="middle" x="609" y="-291.8" font-family="Helvetica,sans-Serif" font-size="14.00" fill="#e6edf3">browser tool</text>
<text text-anchor="middle" x="609" y="-276.8" font-family="Helvetica,sans-Serif" font-size="14.00" fill="#e6edf3">agent&#45;browser + headless Chromium</text>
</g>
<!-- ag&#45;&gt;br -->
<g id="edge3" class="edge">
<title>ag&#45;&gt;br</title>
<path fill="none" stroke="#8b949e" stroke-width="1.6" d="M286.06,-207.57C333.5,-220.05 395.44,-236.19 450.5,-250 460.62,-252.54 471.12,-255.14 481.68,-257.73"/>
<polygon fill="#8b949e" stroke="#8b949e" stroke-width="1.6" points="481.05,-260.82 490.54,-259.91 482.55,-254.7 481.05,-260.82"/>
</g>
<!-- ol -->
<g id="node4" class="node">
<title>ol</title>
<path fill="#161b22" stroke="#bc8cff" stroke-width="2" d="M667,-241.5C667,-241.5 551,-241.5 551,-241.5 545,-241.5 539,-235.5 539,-229.5 539,-229.5 539,-212.5 539,-212.5 539,-206.5 545,-200.5 551,-200.5 551,-200.5 667,-200.5 667,-200.5 673,-200.5 679,-206.5 679,-212.5 679,-212.5 679,-229.5 679,-229.5 679,-235.5 673,-241.5 667,-241.5"/>
<text text-anchor="middle" x="609" y="-217.3" font-family="Helvetica,sans-Serif" font-size="14.00" fill="#e6edf3">Ollama models</text>
</g>
<!-- ag&#45;&gt;ol -->
<g id="edge1" class="edge">
<title>ag&#45;&gt;ol</title>
<path fill="none" stroke="#8b949e" stroke-width="1.6" d="M314.51,-196.02C382.12,-201.78 468.26,-209.11 529.7,-214.34"/>
<polygon fill="#8b949e" stroke="#8b949e" stroke-width="1.6" points="529.72,-217.5 538.96,-215.12 530.26,-211.22 529.72,-217.5"/>
</g>
<!-- tm -->
<g id="node5" class="node">
<title>tm</title>
<path fill="#0d2e2e" stroke="#39c5cf" stroke-width="2" d="M711.5,-72C711.5,-72 506.5,-72 506.5,-72 500.5,-72 494.5,-66 494.5,-60 494.5,-60 494.5,-28 494.5,-28 494.5,-22 500.5,-16 506.5,-16 506.5,-16 711.5,-16 711.5,-16 717.5,-16 723.5,-22 723.5,-28 723.5,-28 723.5,-60 723.5,-60 723.5,-66 717.5,-72 711.5,-72"/>
<text text-anchor="middle" x="609" y="-47.8" font-family="Helvetica,sans-Serif" font-size="14.00" fill="#e6edf3">terminal tool</text>
<text text-anchor="middle" x="609" y="-32.8" font-family="Helvetica,sans-Serif" font-size="14.00" fill="#e6edf3">CLI toolbox, torch + 2 GPUs</text>
</g>
<!-- ag&#45;&gt;tm -->
<g id="edge4" class="edge">
<title>ag&#45;&gt;tm</title>
<path fill="none" stroke="#8b949e" stroke-width="1.6" d="M266.16,-166.36C332.95,-142.45 443.68,-102.82 520.96,-75.16"/>
<polygon fill="#8b949e" stroke="#8b949e" stroke-width="1.6" points="522.33,-78.01 529.74,-72.01 520.2,-72.08 522.33,-78.01"/>
</g>
<!-- net -->
<g id="node6" class="node">
<title>net</title>
<path fill="#1f2937" stroke="#d29922" stroke-width="2" d="M875,-174.5C875,-174.5 808,-174.5 808,-174.5 802,-174.5 796,-168.5 796,-162.5 796,-162.5 796,-145.5 796,-145.5 796,-139.5 802,-133.5 808,-133.5 808,-133.5 875,-133.5 875,-133.5 881,-133.5 887,-139.5 887,-145.5 887,-145.5 887,-162.5 887,-162.5 887,-168.5 881,-174.5 875,-174.5"/>
<text text-anchor="middle" x="841.5" y="-150.3" font-family="Helvetica,sans-Serif" font-size="14.00" fill="#e6edf3">Internet</text>
</g>
<!-- ws&#45;&gt;net -->
<g id="edge5" class="edge">
<title>ws&#45;&gt;net</title>
<path fill="none" stroke="#8b949e" stroke-width="1.6" d="M702.76,-154C731.26,-154 761.68,-154 786.66,-154"/>
<polygon fill="#8b949e" stroke="#8b949e" stroke-width="1.6" points="786.96,-157.15 795.96,-154 786.96,-150.85 786.96,-157.15"/>
</g>
<!-- br&#45;&gt;net -->
<g id="edge6" class="edge">
<title>br&#45;&gt;net</title>
<path fill="none" stroke="#8b949e" stroke-width="1.6" d="M750.99,-259.94C757.07,-256.95 762.94,-253.65 768.5,-250 793.97,-233.26 813.85,-204.3 826.2,-182.55"/>
<polygon fill="#8b949e" stroke="#8b949e" stroke-width="1.6" points="828.99,-184.02 830.56,-174.61 823.47,-180.98 828.99,-184.02"/>
</g>
<!-- tm&#45;&gt;net -->
<g id="edge7" class="edge">
<title>tm&#45;&gt;net</title>
<path fill="none" stroke="#8b949e" stroke-width="1.6" d="M677.34,-72.13C705.75,-84.41 739.01,-99.33 768.5,-114 777.81,-118.63 787.64,-123.86 796.94,-128.97"/>
<polygon fill="#8b949e" stroke="#8b949e" stroke-width="1.6" points="795.55,-131.8 804.95,-133.41 798.61,-126.29 795.55,-131.8"/>
</g>
<!-- n -->
<g id="node7" class="node">
<title>n</title>
<polygon fill="#161b22" stroke="#f85149" stroke-width="2" points="409,-403.5 0,-403.5 0,-362.5 415,-362.5 415,-397.5 409,-403.5"/>
<polyline fill="none" stroke="#f85149" stroke-width="2" points="409,-403.5 409,-397.5 "/>
<polyline fill="none" stroke="#f85149" stroke-width="2" points="415,-397.5 409,-397.5 "/>
<text text-anchor="middle" x="207.5" y="-379.3" font-family="Helvetica,sans-Serif" font-size="14.00" fill="#e6edf3">search + browser are NOT sandboxed; only terminal is</text>
</g>
<!-- n&#45;&gt;br -->
<g id="edge8" class="edge">
<title>n&#45;&gt;br</title>
<path fill="none" stroke="#8b949e" stroke-width="1.6" stroke-dasharray="1,5" d="M394.6,-362.49C401.51,-361.09 408.33,-359.59 415,-358 454.95,-348.47 498.04,-333.33 533.35,-319.57"/>
<polygon fill="#8b949e" stroke="#8b949e" stroke-width="1.6" points="534.93,-322.34 542.15,-316.11 532.62,-316.47 534.93,-322.34"/>
</g>
</g>
</svg>
