<?xml version="1.0" encoding="UTF-8" standalone="no"?>
<!DOCTYPE svg PUBLIC "-//W3C//DTD SVG 1.1//EN"
 "http://www.w3.org/Graphics/SVG/1.1/DTD/svg11.dtd">
<!-- Generated by graphviz version 2.43.0 (0)
 -->
<!-- Title: g Pages: 1 -->
<svg width="1048pt" height="218pt"
 viewBox="0.00 0.00 1047.60 217.60" xmlns="http://www.w3.org/2000/svg" xmlns:xlink="http://www.w3.org/1999/xlink">
<g id="graph0" class="graph" transform="scale(1 1) rotate(0) translate(28.8 188.8)">
<title>g</title>
<polygon fill="#0d1117" stroke="transparent" points="-28.8,28.8 -28.8,-188.8 1018.8,-188.8 1018.8,28.8 -28.8,28.8"/>
<text text-anchor="middle" x="495" y="-140" font-family="Helvetica,sans-Serif" font-size="20.00" fill="#e6edf3">Daemon&#45;reload test: sandbox vs &#45;&#45;gpus&#45;only control (single run)</text>
<!-- a -->
<g id="node1" class="node">
<title>a</title>
<path fill="#13294d" stroke="#58a6ff" stroke-width="2" d="M180,-93C180,-93 12,-93 12,-93 6,-93 0,-87 0,-81 0,-81 0,-49 0,-49 0,-43 6,-37 12,-37 12,-37 180,-37 180,-37 186,-37 192,-43 192,-49 192,-49 192,-81 192,-81 192,-87 186,-93 180,-93"/>
<text text-anchor="middle" x="96" y="-68.8" font-family="Helvetica,sans-Serif" font-size="14.00" fill="#e6edf3">Start control container</text>
<text text-anchor="middle" x="96" y="-53.8" font-family="Helvetica,sans-Serif" font-size="14.00" fill="#e6edf3">&#45;&#45;gpus=all only</text>
</g>
<!-- b -->
<g id="node2" class="node">
<title>b</title>
<path fill="#1f2937" stroke="#3fb950" stroke-width="2" d="M433,-85.5C433,-85.5 240,-85.5 240,-85.5 234,-85.5 228,-79.5 228,-73.5 228,-73.5 228,-56.5 228,-56.5 228,-50.5 234,-44.5 240,-44.5 240,-44.5 433,-44.5 433,-44.5 439,-44.5 445,-50.5 445,-56.5 445,-56.5 445,-73.5 445,-73.5 445,-79.5 439,-85.5 433,-85.5"/>
<text text-anchor="middle" x="336.5" y="-61.3" font-family="Helvetica,sans-Serif" font-size="14.00" fill="#e6edf3">Before: both show 2 GPUs</text>
</g>
<!-- a&#45;&gt;b -->
<g id="edge1" class="edge">
<title>a&#45;&gt;b</title>
<path fill="none" stroke="#8b949e" stroke-width="1.6" d="M192.29,-65C200.96,-65 209.8,-65 218.63,-65"/>
<polygon fill="#8b949e" stroke="#8b949e" stroke-width="1.6" points="218.81,-68.15 227.81,-65 218.81,-61.85 218.81,-68.15"/>
</g>
<!-- r -->
<g id="node3" class="node">
<title>r</title>
<path fill="#1f2937" stroke="#d29922" stroke-width="2" d="M719,-93C719,-93 493,-93 493,-93 487,-93 481,-87 481,-81 481,-81 481,-49 481,-49 481,-43 487,-37 493,-37 493,-37 719,-37 719,-37 725,-37 731,-43 731,-49 731,-49 731,-81 731,-81 731,-87 725,-93 719,-93"/>
<text text-anchor="middle" x="606" y="-68.8" font-family="Helvetica,sans-Serif" font-size="14.00" fill="#e6edf3">sudo systemctl daemon&#45;reload</text>
<text text-anchor="middle" x="606" y="-53.8" font-family="Helvetica,sans-Serif" font-size="14.00" fill="#e6edf3">rc=0</text>
</g>
<!-- b&#45;&gt;r -->
<g id="edge2" class="edge">
<title>b&#45;&gt;r</title>
<path fill="none" stroke="#8b949e" stroke-width="1.6" d="M445.15,-65C453.87,-65 462.76,-65 471.64,-65"/>
<polygon fill="#8b949e" stroke="#8b949e" stroke-width="1.6" points="471.88,-68.15 480.88,-65 471.88,-61.85 471.88,-68.15"/>
</g>
<!-- s -->
<g id="node4" class="node">
<title>s</title>
<path fill="#1f2937" stroke="#3fb950" stroke-width="2" d="M978,-130C978,-130 779,-130 779,-130 773,-130 767,-124 767,-118 767,-118 767,-86 767,-86 767,-80 773,-74 779,-74 779,-74 978,-74 978,-74 984,-74 990,-80 990,-86 990,-86 990,-118 990,-118 990,-124 984,-130 978,-130"/>
<text text-anchor="middle" x="878.5" y="-105.8" font-family="Helvetica,sans-Serif" font-size="14.00" fill="#e6edf3">Sandbox (+ &#45;&#45;device flags)</text>
<text text-anchor="middle" x="878.5" y="-90.8" font-family="Helvetica,sans-Serif" font-size="14.00" fill="#e6edf3">2 GPUs, torch CUDA True</text>
</g>
<!-- r&#45;&gt;s -->
<g id="edge3" class="edge">
<title>r&#45;&gt;s</title>
<path fill="none" stroke="#8b949e" stroke-width="1.6" d="M731.17,-81.98C740.03,-83.2 748.96,-84.42 757.8,-85.63"/>
<polygon fill="#8b949e" stroke="#8b949e" stroke-width="1.6" points="757.63,-88.78 766.97,-86.88 758.48,-82.54 757.63,-88.78"/>
</g>
<!-- c -->
<g id="node5" class="node">
<title>c</title>
<path fill="#161b22" stroke="#f85149" stroke-width="2" d="M958.5,-56C958.5,-56 798.5,-56 798.5,-56 792.5,-56 786.5,-50 786.5,-44 786.5,-44 786.5,-12 786.5,-12 786.5,-6 792.5,0 798.5,0 798.5,0 958.5,0 958.5,0 964.5,0 970.5,-6 970.5,-12 970.5,-12 970.5,-44 970.5,-44 970.5,-50 964.5,-56 958.5,-56"/>
<text text-anchor="middle" x="878.5" y="-31.8" font-family="Helvetica,sans-Serif" font-size="14.00" fill="#e6edf3">Control (&#45;&#45;gpus only)</text>
<text text-anchor="middle" x="878.5" y="-16.8" font-family="Helvetica,sans-Serif" font-size="14.00" fill="#e6edf3">NVML Unknown Error</text>
</g>
<!-- r&#45;&gt;c -->
<g id="edge4" class="edge">
<title>r&#45;&gt;c</title>
<path fill="none" stroke="#8b949e" stroke-width="1.6" d="M731.17,-48.02C746.58,-45.91 762.18,-43.77 777.17,-41.72"/>
<polygon fill="#8b949e" stroke="#8b949e" stroke-width="1.6" points="777.93,-44.8 786.42,-40.46 777.08,-38.56 777.93,-44.8"/>
</g>
</g>
</svg>
