<?xml version="1.0" encoding="UTF-8" standalone="no"?>
<!DOCTYPE svg PUBLIC "-//W3C//DTD SVG 1.1//EN"
 "http://www.w3.org/Graphics/SVG/1.1/DTD/svg11.dtd">
<!-- Generated by graphviz version 2.43.0 (0)
 -->
<!-- Title: g Pages: 1 -->
<svg width="1377pt" height="280pt"
 viewBox="0.00 0.00 1376.60 279.60" xmlns="http://www.w3.org/2000/svg" xmlns:xlink="http://www.w3.org/1999/xlink">
<g id="graph0" class="graph" transform="scale(1 1) rotate(0) translate(28.8 250.8)">
<title>g</title>
<polygon fill="#0d1117" stroke="transparent" points="-28.8,28.8 -28.8,-250.8 1347.8,-250.8 1347.8,28.8 -28.8,28.8"/>
<text text-anchor="middle" x="659.5" y="-202" font-family="Helvetica,sans-Serif" font-size="20.00" fill="#e6edf3">What runs inside the sandbox for the browser</text>
<g id="clust1" class="cluster">
<title>cluster_s</title>
<path fill="#0d1117" stroke="#bc8cff" stroke-dasharray="5,2" d="M287,-8C287,-8 1299,-8 1299,-8 1305,-8 1311,-14 1311,-20 1311,-20 1311,-172 1311,-172 1311,-178 1305,-184 1299,-184 1299,-184 287,-184 287,-184 281,-184 275,-178 275,-172 275,-172 275,-20 275,-20 275,-14 281,-8 287,-8"/>
<text text-anchor="middle" x="793" y="-164" font-family="Helvetica,sans-Serif" font-size="20.00" fill="#bc8cff">Docker sandbox (user pn, uid 1000, cap&#45;drop ALL, +DAC_OVERRIDE, CHOWN, FOWNER)</text>
</g>
<!-- l -->
<g id="node1" class="node">
<title>l</title>
<path fill="#161b22" stroke="#bc8cff" stroke-width="2" d="M780,-72C780,-72 545,-72 545,-72 539,-72 533,-66 533,-60 533,-60 533,-28 533,-28 533,-22 539,-16 545,-16 545,-16 780,-16 780,-16 786,-16 792,-22 792,-28 792,-28 792,-60 792,-60 792,-66 786,-72 780,-72"/>
<text text-anchor="middle" x="662.5" y="-47.8" font-family="Helvetica,sans-Serif" font-size="14.00" fill="#e6edf3">launcher.sh</text>
<text text-anchor="middle" x="662.5" y="-32.8" font-family="Helvetica,sans-Serif" font-size="14.00" fill="#e6edf3">(started by Hermes on demand)</text>
</g>
<!-- x -->
<g id="node2" class="node">
<title>x</title>
<path fill="#13294d" stroke="#58a6ff" stroke-width="2" d="M1058,-142C1058,-142 898,-142 898,-142 892,-142 886,-136 886,-130 886,-130 886,-98 886,-98 886,-92 892,-86 898,-86 898,-86 1058,-86 1058,-86 1064,-86 1070,-92 1070,-98 1070,-98 1070,-130 1070,-130 1070,-136 1064,-142 1058,-142"/>
<text text-anchor="middle" x="978" y="-117.8" font-family="Helvetica,sans-Serif" font-size="14.00" fill="#e6edf3">Xvnc :20</text>
<text text-anchor="middle" x="978" y="-102.8" font-family="Helvetica,sans-Serif" font-size="14.00" fill="#e6edf3">Unix&#45;socket RFB only</text>
</g>
<!-- l&#45;&gt;x -->
<g id="edge2" class="edge">
<title>l&#45;&gt;x</title>
<path fill="none" stroke="#8b949e" stroke-width="1.6" d="M789.21,-72.07C818.26,-78.56 848.79,-85.37 876.6,-91.58"/>
<polygon fill="#8b949e" stroke="#8b949e" stroke-width="1.6" points="876.05,-94.69 885.52,-93.57 877.43,-88.54 876.05,-94.69"/>
</g>
<!-- d -->
<g id="node3" class="node">
<title>d</title>
<path fill="#0d2e2e" stroke="#39c5cf" stroke-width="2" d="M1044.5,-64.5C1044.5,-64.5 911.5,-64.5 911.5,-64.5 905.5,-64.5 899.5,-58.5 899.5,-52.5 899.5,-52.5 899.5,-35.5 899.5,-35.5 899.5,-29.5 905.5,-23.5 911.5,-23.5 911.5,-23.5 1044.5,-23.5 1044.5,-23.5 1050.5,-23.5 1056.5,-29.5 1056.5,-35.5 1056.5,-35.5 1056.5,-52.5 1056.5,-52.5 1056.5,-58.5 1050.5,-64.5 1044.5,-64.5"/>
<text text-anchor="middle" x="978" y="-40.3" font-family="Helvetica,sans-Serif" font-size="14.00" fill="#e6edf3">dbus&#45;run&#45;session</text>
</g>
<!-- l&#45;&gt;d -->
<g id="edge3" class="edge">
<title>l&#45;&gt;d</title>
<path fill="none" stroke="#8b949e" stroke-width="1.6" d="M792.37,-44C825.28,-44 859.87,-44 890.11,-44"/>
<polygon fill="#8b949e" stroke="#8b949e" stroke-width="1.6" points="890.35,-47.15 899.35,-44 890.35,-40.85 890.35,-47.15"/>
</g>
<!-- xf -->
<g id="node4" class="node">
<title>xf</title>
<path fill="#13294d" stroke="#58a6ff" stroke-width="2" d="M1291,-72C1291,-72 1119,-72 1119,-72 1113,-72 1107,-66 1107,-60 1107,-60 1107,-28 1107,-28 1107,-22 1113,-16 1119,-16 1119,-16 1291,-16 1291,-16 1297,-16 1303,-22 1303,-28 1303,-28 1303,-60 1303,-60 1303,-66 1297,-72 1291,-72"/>
<text text-anchor="middle" x="1205" y="-47.8" font-family="Helvetica,sans-Serif" font-size="14.00" fill="#e6edf3">xfsettingsd, xfwm4,</text>
<text text-anchor="middle" x="1205" y="-32.8" font-family="Helvetica,sans-Serif" font-size="14.00" fill="#e6edf3">xfdesktop, xfce4&#45;panel</text>
</g>
<!-- d&#45;&gt;xf -->
<g id="edge4" class="edge">
<title>d&#45;&gt;xf</title>
<path fill="none" stroke="#8b949e" stroke-width="1.6" d="M1056.75,-44C1069.98,-44 1083.92,-44 1097.74,-44"/>
<polygon fill="#8b949e" stroke="#8b949e" stroke-width="1.6" points="1097.8,-47.15 1106.8,-44 1097.8,-40.85 1097.8,-47.15"/>
</g>
<!-- ab -->
<g id="node5" class="node">
<title>ab</title>
<path fill="#1f2937" stroke="#3fb950" stroke-width="2" d="M484,-133.5C484,-133.5 295,-133.5 295,-133.5 289,-133.5 283,-127.5 283,-121.5 283,-121.5 283,-104.5 283,-104.5 283,-98.5 289,-92.5 295,-92.5 295,-92.5 484,-92.5 484,-92.5 490,-92.5 496,-98.5 496,-104.5 496,-104.5 496,-121.5 496,-121.5 496,-127.5 490,-133.5 484,-133.5"/>
<text text-anchor="middle" x="389.5" y="-109.3" font-family="Helvetica,sans-Serif" font-size="14.00" fill="#e6edf3">agent&#45;browser CLI 0.26.0</text>
</g>
<!-- ch -->
<g id="node6" class="node">
<title>ch</title>
<path fill="#1f2937" stroke="#3fb950" stroke-width="2" d="M779,-146C779,-146 546,-146 546,-146 540,-146 534,-140 534,-134 534,-134 534,-102 534,-102 534,-96 540,-90 546,-90 546,-90 779,-90 779,-90 785,-90 791,-96 791,-102 791,-102 791,-134 791,-134 791,-140 785,-146 779,-146"/>
<text text-anchor="middle" x="662.5" y="-121.8" font-family="Helvetica,sans-Serif" font-size="14.00" fill="#e6edf3">Chromium 1208</text>
<text text-anchor="middle" x="662.5" y="-106.8" font-family="Helvetica,sans-Serif" font-size="14.00" fill="#e6edf3">/opt/playwright/chromium&#45;1208</text>
</g>
<!-- ab&#45;&gt;ch -->
<g id="edge6" class="edge">
<title>ab&#45;&gt;ch</title>
<path fill="none" stroke="#8b949e" stroke-width="1.6" d="M496.05,-114.95C505.4,-115.12 514.95,-115.3 524.51,-115.47"/>
<polygon fill="#8b949e" stroke="#8b949e" stroke-width="1.6" points="524.61,-118.62 533.67,-115.64 524.73,-112.33 524.61,-118.62"/>
</g>
<!-- ch&#45;&gt;x -->
<g id="edge7" class="edge">
<title>ch&#45;&gt;x</title>
<path fill="none" stroke="#8b949e" stroke-width="1.6" d="M791.01,-116.37C819.49,-116.01 849.31,-115.63 876.52,-115.28"/>
<polygon fill="#8b949e" stroke="#8b949e" stroke-width="1.6" points="876.68,-118.43 885.64,-115.17 876.6,-112.13 876.68,-118.43"/>
<text text-anchor="middle" x="839" y="-119.8" font-family="Helvetica,sans-Serif" font-size="14.00" fill="#adbac7">DISPLAY</text>
</g>
<!-- h -->
<g id="node7" class="node">
<title>h</title>
<path fill="#1f2937" stroke="#d29922" stroke-width="2" d="M234,-81.5C234,-81.5 12,-81.5 12,-81.5 6,-81.5 0,-75.5 0,-69.5 0,-69.5 0,-52.5 0,-52.5 0,-46.5 6,-40.5 12,-40.5 12,-40.5 234,-40.5 234,-40.5 240,-40.5 246,-46.5 246,-52.5 246,-52.5 246,-69.5 246,-69.5 246,-75.5 240,-81.5 234,-81.5"/>
<text text-anchor="middle" x="123" y="-57.3" font-family="Helvetica,sans-Serif" font-size="14.00" fill="#e6edf3">Hermes browser_* tools (host)</text>
</g>
<!-- h&#45;&gt;l -->
<g id="edge1" class="edge">
<title>h&#45;&gt;l</title>
<path fill="none" stroke="#8b949e" stroke-width="1.6" d="M246.3,-57.13C328.88,-54.52 438.02,-51.07 523.67,-48.36"/>
<polygon fill="#8b949e" stroke="#8b949e" stroke-width="1.6" points="523.78,-51.51 532.68,-48.07 523.58,-45.21 523.78,-51.51"/>
<text text-anchor="middle" x="389.5" y="-59.8" font-family="Helvetica,sans-Serif" font-size="14.00" fill="#adbac7">docker exec</text>
</g>
<!-- h&#45;&gt;ab -->
<g id="edge5" class="edge">
<title>h&#45;&gt;ab</title>
<path fill="none" stroke="#8b949e" stroke-width="1.6" d="M228.54,-81.55C243.75,-84.54 259.47,-87.63 274.85,-90.66"/>
<polygon fill="#8b949e" stroke="#8b949e" stroke-width="1.6" points="274.42,-93.78 283.86,-92.43 275.63,-87.6 274.42,-93.78"/>
</g>
</g>
</svg>
