<?xml version="1.0" encoding="UTF-8" standalone="no"?>
<!DOCTYPE svg PUBLIC "-//W3C//DTD SVG 1.1//EN"
 "http://www.w3.org/Graphics/SVG/1.1/DTD/svg11.dtd">
<!-- Generated by graphviz version 2.43.0 (0)
 -->
<!-- Title: g Pages: 1 -->
<svg width="1220pt" height="449pt"
 viewBox="0.00 0.00 1219.60 448.60" xmlns="http://www.w3.org/2000/svg" xmlns:xlink="http://www.w3.org/1999/xlink">
<g id="graph0" class="graph" transform="scale(1 1) rotate(0) translate(28.8 419.8)">
<title>g</title>
<polygon fill="#0d1117" stroke="transparent" points="-28.8,28.8 -28.8,-419.8 1190.8,-419.8 1190.8,28.8 -28.8,28.8"/>
<text text-anchor="middle" x="581" y="-371" font-family="Helvetica,sans-Serif" font-size="20.00" fill="#e6edf3">Current state (2026&#45;10&#45;06)</text>
<g id="clust1" class="cluster">
<title>cluster_ok</title>
<path fill="#0d1117" stroke="#3fb950" d="M20,-118C20,-118 974,-118 974,-118 980,-118 986,-124 986,-130 986,-130 986,-300 986,-300 986,-306 980,-312 974,-312 974,-312 20,-312 20,-312 14,-312 8,-306 8,-300 8,-300 8,-130 8,-130 8,-124 14,-118 20,-118"/>
<text text-anchor="middle" x="497" y="-292" font-family="Helvetica,sans-Serif" font-size="20.00" fill="#3fb950">Working + verified</text>
</g>
<g id="clust2" class="cluster">
<title>cluster_p</title>
<path fill="#0d1117" stroke="#d29922" d="M540,-8C540,-8 1142,-8 1142,-8 1148,-8 1154,-14 1154,-20 1154,-20 1154,-98 1154,-98 1154,-104 1148,-110 1142,-110 1142,-110 540,-110 540,-110 534,-110 528,-104 528,-98 528,-98 528,-20 528,-20 528,-14 534,-8 540,-8"/>
<text text-anchor="middle" x="841" y="-90" font-family="Helvetica,sans-Serif" font-size="20.00" fill="#d29922">Partial / open</text>
</g>
<!-- h -->
<g id="node1" class="node">
<title>h</title>
<path fill="#13294d" stroke="#58a6ff" stroke-width="2" d="M683,-361C683,-361 573,-361 573,-361 567,-361 561,-355 561,-349 561,-349 561,-332 561,-332 561,-326 567,-320 573,-320 573,-320 683,-320 683,-320 689,-320 695,-326 695,-332 695,-332 695,-349 695,-349 695,-355 689,-361 683,-361"/>
<text text-anchor="middle" x="628" y="-336.8" font-family="Helvetica,sans-Serif" font-size="14.00" fill="#e6edf3">Hermes agent</text>
</g>
<!-- s -->
<g id="node2" class="node">
<title>s</title>
<path fill="#1f2937" stroke="#3fb950" stroke-width="2" d="M966.5,-274C966.5,-274 767.5,-274 767.5,-274 761.5,-274 755.5,-268 755.5,-262 755.5,-262 755.5,-230 755.5,-230 755.5,-224 761.5,-218 767.5,-218 767.5,-218 966.5,-218 966.5,-218 972.5,-218 978.5,-224 978.5,-230 978.5,-230 978.5,-262 978.5,-262 978.5,-268 972.5,-274 966.5,-274"/>
<text text-anchor="middle" x="867" y="-249.8" font-family="Helvetica,sans-Serif" font-size="14.00" fill="#e6edf3">web_search</text>
<text text-anchor="middle" x="867" y="-234.8" font-family="Helvetica,sans-Serif" font-size="14.00" fill="#e6edf3">Tavily keyless (log&#45;verified)</text>
</g>
<!-- h&#45;&gt;s -->
<g id="edge1" class="edge">
<title>h&#45;&gt;s</title>
<path fill="none" stroke="#8b949e" stroke-width="1.6" d="M695.03,-327.33C712.24,-323.31 730.54,-318.23 747,-312 770.48,-303.12 795.07,-290.45 815.84,-278.66"/>
<polygon fill="#8b949e" stroke="#8b949e" stroke-width="1.6" points="817.67,-281.24 823.9,-274.02 814.53,-275.78 817.67,-281.24"/>
</g>
<!-- x -->
<g id="node3" class="node">
<title>x</title>
<path fill="#1f2937" stroke="#3fb950" stroke-width="2" d="M725.5,-274C725.5,-274 530.5,-274 530.5,-274 524.5,-274 518.5,-268 518.5,-262 518.5,-262 518.5,-230 518.5,-230 518.5,-224 524.5,-218 530.5,-218 530.5,-218 725.5,-218 725.5,-218 731.5,-218 737.5,-224 737.5,-230 737.5,-230 737.5,-262 737.5,-262 737.5,-268 731.5,-274 725.5,-274"/>
<text text-anchor="middle" x="628" y="-249.8" font-family="Helvetica,sans-Serif" font-size="14.00" fill="#e6edf3">web_extract</text>
<text text-anchor="middle" x="628" y="-234.8" font-family="Helvetica,sans-Serif" font-size="14.00" fill="#e6edf3">keenable (3rd&#45;party fetch)</text>
</g>
<!-- h&#45;&gt;x -->
<g id="edge2" class="edge">
<title>h&#45;&gt;x</title>
<path fill="none" stroke="#8b949e" stroke-width="1.6" d="M628,-319.88C628,-309.32 628,-295.94 628,-283.54"/>
<polygon fill="#8b949e" stroke="#8b949e" stroke-width="1.6" points="631.15,-283.31 628,-274.31 624.85,-283.31 631.15,-283.31"/>
</g>
<!-- t -->
<g id="node4" class="node">
<title>t</title>
<path fill="#1f2937" stroke="#3fb950" stroke-width="2" d="M488.5,-274C488.5,-274 313.5,-274 313.5,-274 307.5,-274 301.5,-268 301.5,-262 301.5,-262 301.5,-230 301.5,-230 301.5,-224 307.5,-218 313.5,-218 313.5,-218 488.5,-218 488.5,-218 494.5,-218 500.5,-224 500.5,-230 500.5,-230 500.5,-262 500.5,-262 500.5,-268 494.5,-274 488.5,-274"/>
<text text-anchor="middle" x="401" y="-249.8" font-family="Helvetica,sans-Serif" font-size="14.00" fill="#e6edf3">terminal tool</text>
<text text-anchor="middle" x="401" y="-234.8" font-family="Helvetica,sans-Serif" font-size="14.00" fill="#e6edf3">sandbox :desktop&#45;tools</text>
</g>
<!-- h&#45;&gt;t -->
<g id="edge3" class="edge">
<title>h&#45;&gt;t</title>
<path fill="none" stroke="#8b949e" stroke-width="1.6" d="M560.73,-327.6C543.85,-323.59 526,-318.45 510,-312 488.46,-303.31 466.17,-290.75 447.4,-278.99"/>
<polygon fill="#8b949e" stroke="#8b949e" stroke-width="1.6" points="448.87,-276.19 439.59,-274.01 445.49,-281.5 448.87,-276.19"/>
</g>
<!-- b -->
<g id="node5" class="node">
<title>b</title>
<path fill="#1f2937" stroke="#3fb950" stroke-width="2" d="M271.5,-274C271.5,-274 28.5,-274 28.5,-274 22.5,-274 16.5,-268 16.5,-262 16.5,-262 16.5,-230 16.5,-230 16.5,-224 22.5,-218 28.5,-218 28.5,-218 271.5,-218 271.5,-218 277.5,-218 283.5,-224 283.5,-230 283.5,-230 283.5,-262 283.5,-262 283.5,-268 277.5,-274 271.5,-274"/>
<text text-anchor="middle" x="150" y="-249.8" font-family="Helvetica,sans-Serif" font-size="14.00" fill="#e6edf3">browser</text>
<text text-anchor="middle" x="150" y="-234.8" font-family="Helvetica,sans-Serif" font-size="14.00" fill="#e6edf3">in sandbox, navigate + snapshot</text>
</g>
<!-- h&#45;&gt;b -->
<g id="edge4" class="edge">
<title>h&#45;&gt;b</title>
<path fill="none" stroke="#8b949e" stroke-width="1.6" d="M560.75,-336.75C477.6,-332.88 341.05,-324.81 292,-312 262.53,-304.3 231.58,-290.84 206.12,-278.16"/>
<polygon fill="#8b949e" stroke="#8b949e" stroke-width="1.6" points="207.51,-275.33 198.06,-274.08 204.67,-280.96 207.51,-275.33"/>
</g>
<!-- bl -->
<g id="node8" class="node">
<title>bl</title>
<path fill="#1f2937" stroke="#d29922" stroke-width="2" d="M1133.5,-72C1133.5,-72 922.5,-72 922.5,-72 916.5,-72 910.5,-66 910.5,-60 910.5,-60 910.5,-28 910.5,-28 910.5,-22 916.5,-16 922.5,-16 922.5,-16 1133.5,-16 1133.5,-16 1139.5,-16 1145.5,-22 1145.5,-28 1145.5,-28 1145.5,-60 1145.5,-60 1145.5,-66 1139.5,-72 1133.5,-72"/>
<text text-anchor="middle" x="1028" y="-47.8" font-family="Helvetica,sans-Serif" font-size="14.00" fill="#e6edf3">domain blocklist</text>
<text text-anchor="middle" x="1028" y="-32.8" font-family="Helvetica,sans-Serif" font-size="14.00" fill="#e6edf3">browser yes, web_extract no</text>
</g>
<!-- h&#45;&gt;bl -->
<g id="edge7" class="edge">
<title>h&#45;&gt;bl</title>
<path fill="none" stroke="#8b949e" stroke-width="1.6" d="M695.2,-338.86C793.97,-337.26 969.01,-331.66 990,-312 1053.29,-252.73 1044.9,-139.49 1035.41,-81.38"/>
<polygon fill="#8b949e" stroke="#8b949e" stroke-width="1.6" points="1038.46,-80.54 1033.83,-72.2 1032.26,-81.61 1038.46,-80.54"/>
</g>
<!-- br -->
<g id="node10" class="node">
<title>br</title>
<path fill="#1f2937" stroke="#d29922" stroke-width="2" d="M880,-72C880,-72 738,-72 738,-72 732,-72 726,-66 726,-60 726,-60 726,-28 726,-28 726,-22 732,-16 738,-16 738,-16 880,-16 880,-16 886,-16 892,-22 892,-28 892,-28 892,-60 892,-60 892,-66 886,-72 880,-72"/>
<text text-anchor="middle" x="809" y="-47.8" font-family="Helvetica,sans-Serif" font-size="14.00" fill="#e6edf3">Brave search</text>
<text text-anchor="middle" x="809" y="-32.8" font-family="Helvetica,sans-Serif" font-size="14.00" fill="#e6edf3">deferred (optional)</text>
</g>
<!-- s&#45;&gt;br -->
<g id="edge9" class="edge">
<title>s&#45;&gt;br</title>
<path fill="none" stroke="#8b949e" stroke-width="1.6" stroke-dasharray="1,5" d="M859.06,-217.61C848.77,-182.15 830.83,-120.27 819.45,-81.03"/>
<polygon fill="#8b949e" stroke="#8b949e" stroke-width="1.6" points="822.38,-79.83 816.85,-72.06 816.33,-81.58 822.38,-79.83"/>
</g>
<!-- g -->
<g id="node6" class="node">
<title>g</title>
<path fill="#1f2937" stroke="#3fb950" stroke-width="2" d="M411,-182C411,-182 231,-182 231,-182 225,-182 219,-176 219,-170 219,-170 219,-138 219,-138 219,-132 225,-126 231,-126 231,-126 411,-126 411,-126 417,-126 423,-132 423,-138 423,-138 423,-170 423,-170 423,-176 417,-182 411,-182"/>
<text text-anchor="middle" x="321" y="-157.8" font-family="Helvetica,sans-Serif" font-size="14.00" fill="#e6edf3">2 GPUs in sandbox</text>
<text text-anchor="middle" x="321" y="-142.8" font-family="Helvetica,sans-Serif" font-size="14.00" fill="#e6edf3">survives daemon&#45;reload</text>
</g>
<!-- t&#45;&gt;g -->
<g id="edge5" class="edge">
<title>t&#45;&gt;g</title>
<path fill="none" stroke="#8b949e" stroke-width="1.6" d="M377,-218C368.92,-208.91 359.81,-198.66 351.31,-189.1"/>
<polygon fill="#8b949e" stroke="#8b949e" stroke-width="1.6" points="353.6,-186.93 345.26,-182.29 348.89,-191.11 353.6,-186.93"/>
</g>
<!-- e -->
<g id="node7" class="node">
<title>e</title>
<path fill="#1f2937" stroke="#3fb950" stroke-width="2" d="M791,-182C791,-182 453,-182 453,-182 447,-182 441,-176 441,-170 441,-170 441,-138 441,-138 441,-132 447,-126 453,-126 453,-126 791,-126 791,-126 797,-126 803,-132 803,-138 803,-138 803,-170 803,-170 803,-176 797,-182 791,-182"/>
<text text-anchor="middle" x="622" y="-157.8" font-family="Helvetica,sans-Serif" font-size="14.00" fill="#e6edf3">egress filter</text>
<text text-anchor="middle" x="622" y="-142.8" font-family="Helvetica,sans-Serif" font-size="14.00" fill="#e6edf3">LAN/metadata blocked, survives docker restart</text>
</g>
<!-- t&#45;&gt;e -->
<g id="edge6" class="edge">
<title>t&#45;&gt;e</title>
<path fill="none" stroke="#8b949e" stroke-width="1.6" d="M467.31,-218C492.32,-207.81 520.96,-196.15 546.73,-185.65"/>
<polygon fill="#8b949e" stroke="#8b949e" stroke-width="1.6" points="548.21,-188.45 555.36,-182.14 545.83,-182.62 548.21,-188.45"/>
</g>
<!-- rb -->
<g id="node9" class="node">
<title>rb</title>
<path fill="#1f2937" stroke="#d29922" stroke-width="2" d="M695.5,-72C695.5,-72 548.5,-72 548.5,-72 542.5,-72 536.5,-66 536.5,-60 536.5,-60 536.5,-28 536.5,-28 536.5,-22 542.5,-16 548.5,-16 548.5,-16 695.5,-16 695.5,-16 701.5,-16 707.5,-22 707.5,-28 707.5,-28 707.5,-60 707.5,-60 707.5,-66 701.5,-72 695.5,-72"/>
<text text-anchor="middle" x="622" y="-47.8" font-family="Helvetica,sans-Serif" font-size="14.00" fill="#e6edf3">full machine reboot</text>
<text text-anchor="middle" x="622" y="-32.8" font-family="Helvetica,sans-Serif" font-size="14.00" fill="#e6edf3">NOT tested</text>
</g>
<!-- e&#45;&gt;rb -->
<g id="edge8" class="edge">
<title>e&#45;&gt;rb</title>
<path fill="none" stroke="#8b949e" stroke-width="1.6" stroke-dasharray="1,5" d="M622,-125.75C622,-112.32 622,-95.93 622,-81.44"/>
<polygon fill="#8b949e" stroke="#8b949e" stroke-width="1.6" points="625.15,-81.24 622,-72.24 618.85,-81.24 625.15,-81.24"/>
</g>
</g>
</svg>
