<?xml version="1.0" encoding="UTF-8" standalone="no"?>
<!DOCTYPE svg PUBLIC "-//W3C//DTD SVG 1.1//EN"
 "http://www.w3.org/Graphics/SVG/1.1/DTD/svg11.dtd">
<!-- Generated by graphviz version 2.43.0 (0)
 -->
<!-- Title: g Pages: 1 -->
<svg width="1666pt" height="236pt"
 viewBox="0.00 0.00 1666.10 235.60" xmlns="http://www.w3.org/2000/svg" xmlns:xlink="http://www.w3.org/1999/xlink">
<g id="graph0" class="graph" transform="scale(1 1) rotate(0) translate(28.8 206.8)">
<title>g</title>
<polygon fill="#0d1117" stroke="transparent" points="-28.8,28.8 -28.8,-206.8 1637.3,-206.8 1637.3,28.8 -28.8,28.8"/>
<text text-anchor="middle" x="804.25" y="-158" font-family="Helvetica,sans-Serif" font-size="20.00" fill="#e6edf3">Decision log</text>
<!-- d1 -->
<g id="node1" class="node">
<title>d1</title>
<path fill="#13294d" stroke="#58a6ff" stroke-width="2" d="M247,-148C247,-148 117,-148 117,-148 111,-148 105,-142 105,-136 105,-136 105,-119 105,-119 105,-113 111,-107 117,-107 117,-107 247,-107 247,-107 253,-107 259,-113 259,-119 259,-119 259,-136 259,-136 259,-142 253,-148 247,-148"/>
<text text-anchor="middle" x="182" y="-123.8" font-family="Helvetica,sans-Serif" font-size="14.00" fill="#e6edf3">Search backend?</text>
</g>
<!-- a1 -->
<g id="node2" class="node">
<title>a1</title>
<path fill="#1f2937" stroke="#3fb950" stroke-width="2" d="M156,-63.5C156,-63.5 12,-63.5 12,-63.5 6,-63.5 0,-57.5 0,-51.5 0,-51.5 0,-19.5 0,-19.5 0,-13.5 6,-7.5 12,-7.5 12,-7.5 156,-7.5 156,-7.5 162,-7.5 168,-13.5 168,-19.5 168,-19.5 168,-51.5 168,-51.5 168,-57.5 162,-63.5 156,-63.5"/>
<text text-anchor="middle" x="84" y="-39.3" font-family="Helvetica,sans-Serif" font-size="14.00" fill="#e6edf3">ddgs (no key, free)</text>
<text text-anchor="middle" x="84" y="-24.3" font-family="Helvetica,sans-Serif" font-size="14.00" fill="#e6edf3">CHOSEN</text>
</g>
<!-- d1&#45;&gt;a1 -->
<g id="edge1" class="edge">
<title>d1&#45;&gt;a1</title>
<path fill="none" stroke="#8b949e" stroke-width="1.6" d="M160.74,-106.97C148.94,-96.14 133.95,-82.38 120.36,-69.89"/>
<polygon fill="#8b949e" stroke="#8b949e" stroke-width="1.6" points="122.16,-67.27 113.4,-63.5 117.9,-71.91 122.16,-67.27"/>
</g>
<!-- a1b -->
<g id="node3" class="node">
<title>a1b</title>
<path fill="#1f2937" stroke="#d29922" stroke-width="2" d="M362,-63.5C362,-63.5 198,-63.5 198,-63.5 192,-63.5 186,-57.5 186,-51.5 186,-51.5 186,-19.5 186,-19.5 186,-13.5 192,-7.5 198,-7.5 198,-7.5 362,-7.5 362,-7.5 368,-7.5 374,-13.5 374,-19.5 374,-19.5 374,-51.5 374,-51.5 374,-57.5 368,-63.5 362,-63.5"/>
<text text-anchor="middle" x="280" y="-39.3" font-family="Helvetica,sans-Serif" font-size="14.00" fill="#e6edf3">brave&#45;free: needs key</text>
<text text-anchor="middle" x="280" y="-24.3" font-family="Helvetica,sans-Serif" font-size="14.00" fill="#e6edf3">DEFERRED by user</text>
</g>
<!-- d1&#45;&gt;a1b -->
<g id="edge2" class="edge">
<title>d1&#45;&gt;a1b</title>
<path fill="none" stroke="#8b949e" stroke-width="1.6" d="M203.26,-106.97C215.06,-96.14 230.05,-82.38 243.64,-69.89"/>
<polygon fill="#8b949e" stroke="#8b949e" stroke-width="1.6" points="246.1,-71.91 250.6,-63.5 241.84,-67.27 246.1,-71.91"/>
</g>
<!-- d2 -->
<g id="node4" class="node">
<title>d2</title>
<path fill="#13294d" stroke="#58a6ff" stroke-width="2" d="M840,-148C840,-148 686,-148 686,-148 680,-148 674,-142 674,-136 674,-136 674,-119 674,-119 674,-113 680,-107 686,-107 686,-107 840,-107 840,-107 846,-107 852,-113 852,-119 852,-119 852,-136 852,-136 852,-142 846,-148 840,-148"/>
<text text-anchor="middle" x="763" y="-123.8" font-family="Helvetica,sans-Serif" font-size="14.00" fill="#e6edf3">Browser placement?</text>
</g>
<!-- a2 -->
<g id="node5" class="node">
<title>a2</title>
<path fill="#1f2937" stroke="#3fb950" stroke-width="2" d="M601.5,-63.5C601.5,-63.5 404.5,-63.5 404.5,-63.5 398.5,-63.5 392.5,-57.5 392.5,-51.5 392.5,-51.5 392.5,-19.5 392.5,-19.5 392.5,-13.5 398.5,-7.5 404.5,-7.5 404.5,-7.5 601.5,-7.5 601.5,-7.5 607.5,-7.5 613.5,-13.5 613.5,-19.5 613.5,-19.5 613.5,-51.5 613.5,-51.5 613.5,-57.5 607.5,-63.5 601.5,-63.5"/>
<text text-anchor="middle" x="503" y="-39.3" font-family="Helvetica,sans-Serif" font-size="14.00" fill="#e6edf3">Sandboxed desktop image</text>
<text text-anchor="middle" x="503" y="-24.3" font-family="Helvetica,sans-Serif" font-size="14.00" fill="#e6edf3">CHOSEN (A)</text>
</g>
<!-- d2&#45;&gt;a2 -->
<g id="edge3" class="edge">
<title>d2&#45;&gt;a2</title>
<path fill="none" stroke="#8b949e" stroke-width="1.6" d="M706.58,-106.97C672.43,-95.15 628.16,-79.83 589.64,-66.49"/>
<polygon fill="#8b949e" stroke="#8b949e" stroke-width="1.6" points="590.54,-63.47 581,-63.5 588.48,-69.42 590.54,-63.47"/>
</g>
<!-- a2b -->
<g id="node6" class="node">
<title>a2b</title>
<path fill="#161b22" stroke="#f85149" stroke-width="2" d="M882,-63.5C882,-63.5 644,-63.5 644,-63.5 638,-63.5 632,-57.5 632,-51.5 632,-51.5 632,-19.5 632,-19.5 632,-13.5 638,-7.5 644,-7.5 644,-7.5 882,-7.5 882,-7.5 888,-7.5 894,-13.5 894,-19.5 894,-19.5 894,-51.5 894,-51.5 894,-57.5 888,-63.5 882,-63.5"/>
<text text-anchor="middle" x="763" y="-39.3" font-family="Helvetica,sans-Serif" font-size="14.00" fill="#e6edf3">gateway/host: crosses boundary</text>
<text text-anchor="middle" x="763" y="-24.3" font-family="Helvetica,sans-Serif" font-size="14.00" fill="#e6edf3">rejected</text>
</g>
<!-- d2&#45;&gt;a2b -->
<g id="edge4" class="edge">
<title>d2&#45;&gt;a2b</title>
<path fill="none" stroke="#8b949e" stroke-width="1.6" d="M763,-106.97C763,-96.94 763,-84.38 763,-72.66"/>
<polygon fill="#8b949e" stroke="#8b949e" stroke-width="1.6" points="766.15,-72.5 763,-63.5 759.85,-72.5 766.15,-72.5"/>
</g>
<!-- a2c -->
<g id="node7" class="node">
<title>a2c</title>
<path fill="#1f2937" stroke="#d29922" stroke-width="2" d="M996,-63.5C996,-63.5 924,-63.5 924,-63.5 918,-63.5 912,-57.5 912,-51.5 912,-51.5 912,-19.5 912,-19.5 912,-13.5 918,-7.5 924,-7.5 924,-7.5 996,-7.5 996,-7.5 1002,-7.5 1008,-13.5 1008,-19.5 1008,-19.5 1008,-51.5 1008,-51.5 1008,-57.5 1002,-63.5 996,-63.5"/>
<text text-anchor="middle" x="960" y="-39.3" font-family="Helvetica,sans-Serif" font-size="14.00" fill="#e6edf3">leave off</text>
<text text-anchor="middle" x="960" y="-24.3" font-family="Helvetica,sans-Serif" font-size="14.00" fill="#e6edf3">rejected</text>
</g>
<!-- d2&#45;&gt;a2c -->
<g id="edge5" class="edge">
<title>d2&#45;&gt;a2c</title>
<path fill="none" stroke="#8b949e" stroke-width="1.6" d="M818.44,-106.96C844.54,-97.15 875.84,-84.49 903,-71 904.85,-70.08 906.72,-69.12 908.6,-68.13"/>
<polygon fill="#8b949e" stroke="#8b949e" stroke-width="1.6" points="910.46,-70.71 916.85,-63.64 907.44,-65.18 910.46,-70.71"/>
</g>
<!-- d3 -->
<g id="node8" class="node">
<title>d3</title>
<path fill="#13294d" stroke="#58a6ff" stroke-width="2" d="M1281,-148C1281,-148 1163,-148 1163,-148 1157,-148 1151,-142 1151,-136 1151,-136 1151,-119 1151,-119 1151,-113 1157,-107 1163,-107 1163,-107 1281,-107 1281,-107 1287,-107 1293,-113 1293,-119 1293,-119 1293,-136 1293,-136 1293,-142 1287,-148 1281,-148"/>
<text text-anchor="middle" x="1222" y="-123.8" font-family="Helvetica,sans-Serif" font-size="14.00" fill="#e6edf3">Egress control?</text>
</g>
<!-- a3 -->
<g id="node9" class="node">
<title>a3</title>
<path fill="#1f2937" stroke="#3fb950" stroke-width="2" d="M1198,-71C1198,-71 1038,-71 1038,-71 1032,-71 1026,-65 1026,-59 1026,-59 1026,-12 1026,-12 1026,-6 1032,0 1038,0 1038,0 1198,0 1198,0 1204,0 1210,-6 1210,-12 1210,-12 1210,-59 1210,-59 1210,-65 1204,-71 1198,-71"/>
<text text-anchor="middle" x="1118" y="-46.8" font-family="Helvetica,sans-Serif" font-size="14.00" fill="#e6edf3">Dedicated network +</text>
<text text-anchor="middle" x="1118" y="-31.8" font-family="Helvetica,sans-Serif" font-size="14.00" fill="#e6edf3">DOCKER&#45;USER chain</text>
<text text-anchor="middle" x="1118" y="-16.8" font-family="Helvetica,sans-Serif" font-size="14.00" fill="#e6edf3">CHOSEN</text>
</g>
<!-- d3&#45;&gt;a3 -->
<g id="edge6" class="edge">
<title>d3&#45;&gt;a3</title>
<path fill="none" stroke="#8b949e" stroke-width="1.6" d="M1199.43,-106.97C1189.35,-98.24 1177.05,-87.6 1165.11,-77.27"/>
<polygon fill="#8b949e" stroke="#8b949e" stroke-width="1.6" points="1167,-74.74 1158.14,-71.23 1162.88,-79.51 1167,-74.74"/>
</g>
<!-- a3b -->
<g id="node10" class="node">
<title>a3b</title>
<path fill="#1f2937" stroke="#d29922" stroke-width="2" d="M1412,-63.5C1412,-63.5 1240,-63.5 1240,-63.5 1234,-63.5 1228,-57.5 1228,-51.5 1228,-51.5 1228,-19.5 1228,-19.5 1228,-13.5 1234,-7.5 1240,-7.5 1240,-7.5 1412,-7.5 1412,-7.5 1418,-7.5 1424,-13.5 1424,-19.5 1424,-19.5 1424,-51.5 1424,-51.5 1424,-57.5 1418,-63.5 1412,-63.5"/>
<text text-anchor="middle" x="1326" y="-39.3" font-family="Helvetica,sans-Serif" font-size="14.00" fill="#e6edf3">proxy allowlist: heavier</text>
<text text-anchor="middle" x="1326" y="-24.3" font-family="Helvetica,sans-Serif" font-size="14.00" fill="#e6edf3">not pursued</text>
</g>
<!-- d3&#45;&gt;a3b -->
<g id="edge7" class="edge">
<title>d3&#45;&gt;a3b</title>
<path fill="none" stroke="#8b949e" stroke-width="1.6" d="M1244.57,-106.97C1257.2,-96.04 1273.28,-82.12 1287.81,-69.55"/>
<polygon fill="#8b949e" stroke="#8b949e" stroke-width="1.6" points="1290.05,-71.77 1294.8,-63.5 1285.93,-67.01 1290.05,-71.77"/>
</g>
<!-- d4 -->
<g id="node11" class="node">
<title>d4</title>
<path fill="#13294d" stroke="#58a6ff" stroke-width="2" d="M1574.5,-148C1574.5,-148 1475.5,-148 1475.5,-148 1469.5,-148 1463.5,-142 1463.5,-136 1463.5,-136 1463.5,-119 1463.5,-119 1463.5,-113 1469.5,-107 1475.5,-107 1475.5,-107 1574.5,-107 1574.5,-107 1580.5,-107 1586.5,-113 1586.5,-119 1586.5,-119 1586.5,-136 1586.5,-136 1586.5,-142 1580.5,-148 1574.5,-148"/>
<text text-anchor="middle" x="1525" y="-123.8" font-family="Helvetica,sans-Serif" font-size="14.00" fill="#e6edf3">Reboot test?</text>
</g>
<!-- a4 -->
<g id="node12" class="node">
<title>a4</title>
<path fill="#1f2937" stroke="#d29922" stroke-width="2" d="M1596.5,-63.5C1596.5,-63.5 1453.5,-63.5 1453.5,-63.5 1447.5,-63.5 1441.5,-57.5 1441.5,-51.5 1441.5,-51.5 1441.5,-19.5 1441.5,-19.5 1441.5,-13.5 1447.5,-7.5 1453.5,-7.5 1453.5,-7.5 1596.5,-7.5 1596.5,-7.5 1602.5,-7.5 1608.5,-13.5 1608.5,-19.5 1608.5,-19.5 1608.5,-51.5 1608.5,-51.5 1608.5,-57.5 1602.5,-63.5 1596.5,-63.5"/>
<text text-anchor="middle" x="1525" y="-39.3" font-family="Helvetica,sans-Serif" font-size="14.00" fill="#e6edf3">Deferred until user</text>
<text text-anchor="middle" x="1525" y="-24.3" font-family="Helvetica,sans-Serif" font-size="14.00" fill="#e6edf3">is at the machine</text>
</g>
<!-- d4&#45;&gt;a4 -->
<g id="edge8" class="edge">
<title>d4&#45;&gt;a4</title>
<path fill="none" stroke="#8b949e" stroke-width="1.6" d="M1525,-106.97C1525,-96.94 1525,-84.38 1525,-72.66"/>
<polygon fill="#8b949e" stroke="#8b949e" stroke-width="1.6" points="1528.15,-72.5 1525,-63.5 1521.85,-72.5 1528.15,-72.5"/>
</g>
</g>
</svg>
