<?xml version="1.0" encoding="UTF-8" standalone="no"?>
<!DOCTYPE svg PUBLIC "-//W3C//DTD SVG 1.1//EN"
 "http://www.w3.org/Graphics/SVG/1.1/DTD/svg11.dtd">
<!-- Generated by graphviz version 2.43.0 (0)
 -->
<!-- Title: g Pages: 1 -->
<svg width="1139pt" height="144pt"
 viewBox="0.00 0.00 1138.60 143.60" xmlns="http://www.w3.org/2000/svg" xmlns:xlink="http://www.w3.org/1999/xlink">
<g id="graph0" class="graph" transform="scale(1 1) rotate(0) translate(28.8 114.8)">
<title>g</title>
<polygon fill="#0d1117" stroke="transparent" points="-28.8,28.8 -28.8,-114.8 1109.8,-114.8 1109.8,28.8 -28.8,28.8"/>
<text text-anchor="middle" x="540.5" y="-66" font-family="Helvetica,sans-Serif" font-size="20.00" fill="#e6edf3">Open items</text>
<!-- a -->
<g id="node1" class="node">
<title>a</title>
<path fill="#1f2937" stroke="#d29922" stroke-width="2" d="M192,-56C192,-56 12,-56 12,-56 6,-56 0,-50 0,-44 0,-44 0,-12 0,-12 0,-6 6,0 12,0 12,0 192,0 192,0 198,0 204,-6 204,-12 204,-12 204,-44 204,-44 204,-50 198,-56 192,-56"/>
<text text-anchor="middle" x="102" y="-31.8" font-family="Helvetica,sans-Serif" font-size="14.00" fill="#e6edf3">Full machine reboot test</text>
<text text-anchor="middle" x="102" y="-16.8" font-family="Helvetica,sans-Serif" font-size="14.00" fill="#e6edf3">(user present)</text>
</g>
<!-- b -->
<g id="node2" class="node">
<title>b</title>
<path fill="#1f2937" stroke="#d29922" stroke-width="2" d="M426,-56C426,-56 252,-56 252,-56 246,-56 240,-50 240,-44 240,-44 240,-12 240,-12 240,-6 246,0 252,0 252,0 426,0 426,0 432,0 438,-6 438,-12 438,-12 438,-44 438,-44 438,-50 432,-56 426,-56"/>
<text text-anchor="middle" x="339" y="-31.8" font-family="Helvetica,sans-Serif" font-size="14.00" fill="#e6edf3">Brave search (optional)</text>
<text text-anchor="middle" x="339" y="-16.8" font-family="Helvetica,sans-Serif" font-size="14.00" fill="#e6edf3">needs user&#39;s free key</text>
</g>
<!-- a&#45;&gt;b -->
<!-- c -->
<g id="node3" class="node">
<title>c</title>
<path fill="#1f2937" stroke="#d29922" stroke-width="2" d="M600,-56C600,-56 486,-56 486,-56 480,-56 474,-50 474,-44 474,-44 474,-12 474,-12 474,-6 480,0 486,0 486,0 600,0 600,0 606,0 612,-6 612,-12 612,-12 612,-44 612,-44 612,-50 606,-56 600,-56"/>
<text text-anchor="middle" x="543" y="-31.8" font-family="Helvetica,sans-Serif" font-size="14.00" fill="#e6edf3">IPv6 egress</text>
<text text-anchor="middle" x="543" y="-16.8" font-family="Helvetica,sans-Serif" font-size="14.00" fill="#e6edf3">not configured</text>
</g>
<!-- b&#45;&gt;c -->
<!-- d -->
<g id="node4" class="node">
<title>d</title>
<path fill="#1f2937" stroke="#d29922" stroke-width="2" d="M849,-56C849,-56 660,-56 660,-56 654,-56 648,-50 648,-44 648,-44 648,-12 648,-12 648,-6 654,0 660,0 660,0 849,0 849,0 855,0 861,-6 861,-12 861,-12 861,-44 861,-44 861,-50 855,-56 849,-56"/>
<text text-anchor="middle" x="754.5" y="-31.8" font-family="Helvetica,sans-Serif" font-size="14.00" fill="#e6edf3">web_extract blocklist gap</text>
<text text-anchor="middle" x="754.5" y="-16.8" font-family="Helvetica,sans-Serif" font-size="14.00" fill="#e6edf3">could pin a local fetcher</text>
</g>
<!-- c&#45;&gt;d -->
<!-- e -->
<g id="node5" class="node">
<title>e</title>
<path fill="#0d2e2e" stroke="#39c5cf" stroke-width="2" d="M1069,-56C1069,-56 909,-56 909,-56 903,-56 897,-50 897,-44 897,-44 897,-12 897,-12 897,-6 903,0 909,0 909,0 1069,0 1069,0 1075,0 1081,-6 1081,-12 1081,-12 1081,-44 1081,-44 1081,-50 1075,-56 1069,-56"/>
<text text-anchor="middle" x="989" y="-31.8" font-family="Helvetica,sans-Serif" font-size="14.00" fill="#e6edf3">Narrow LAN allow&#45;list</text>
<text text-anchor="middle" x="989" y="-16.8" font-family="Helvetica,sans-Serif" font-size="14.00" fill="#e6edf3">only if agent needs it</text>
</g>
<!-- d&#45;&gt;e -->
</g>
</svg>
